<?xml version="1.0" encoding="UTF-8"?>
<!-- Generator: Adobe Illustrator 17.0.0, SVG Export Plug-In . SVG Version: 6.00 Build 0)  -->
<!DOCTYPE svg PUBLIC "-//W3C//DTD SVG 1.1//EN" "http://www.w3.org/Graphics/SVG/1.1/DTD/svg11.dtd">
<svg version="1.1" id="Layer_1" xmlns="http://www.w3.org/2000/svg" xmlns:xlink="http://www.w3.org/1999/xlink" x="0px" y="0px" width="50px" height="100px" viewBox="0 0 50 100" enable-background="new 0 0 50 100" xml:space="preserve">
<path fill="#60afc6" d="M25,0C11.192,0,0,11.192,0,25s11.192,25,25,25s25-11.192,25-25S38.808,0,25,0 M25,1  c13.233,0,24,10.767,24,24S38.233,49,25,49S1,38.233,1,25S11.767,1,25,1"/>
<g>
	<path fill="#60afc6" d="M21.541,38c-1.049,0-1.898,0.85-1.898,1.898c0,1.048,0.849,1.898,1.898,1.898   c1.049,0,1.898-0.85,1.898-1.898C23.439,38.85,22.59,38,21.541,38"/>
	<path fill="#60afc6" d="M31.852,38c-1.048,0-1.897,0.85-1.897,1.898c0,1.048,0.849,1.898,1.897,1.898   c1.049,0,1.898-0.85,1.898-1.898C33.75,38.85,32.901,38,31.852,38"/>
	<path fill="#60afc6" d="M32.178,35.5H20.846l-3.138-12.54l17.018,4.305L32.178,35.5z M38,19.5H16.847l-1.493-4.803   c-0.086-0.276-0.292-0.505-0.558-0.62l-4.452-1.932c-0.506-0.221-1.095,0.011-1.315,0.518c-0.22,0.507,0.013,1.096,0.519,1.316   l4.032,1.75l1.43,4.6C15.009,20.346,15,20.357,15,20.375l3.947,15.775c0.194,0.709,1.032,1.35,1.584,1.35h12.297   c0.797,0,0.992-0.594,1.172-1.125l5-16.125C39.109,19.703,38.553,19.5,38,19.5"/>
</g>
<circle fill="#60afc6" cx="25" cy="75" r="25"/>
<g>
	<path fill="#FFFFFF" d="M21.541,88c-1.049,0-1.898,0.85-1.898,1.898c0,1.048,0.849,1.898,1.898,1.898   c1.049,0,1.898-0.85,1.898-1.898C23.439,88.85,22.59,88,21.541,88"/>
	<path fill="#FFFFFF" d="M31.852,88c-1.048,0-1.897,0.85-1.897,1.898c0,1.048,0.849,1.898,1.897,1.898   c1.049,0,1.898-0.85,1.898-1.898C33.75,88.85,32.901,88,31.852,88"/>
	<path fill="#FFFFFF" d="M32.178,85.5H20.846l-3.138-12.54l17.018,4.305L32.178,85.5z M38,69.5H16.847l-1.493-4.803   c-0.086-0.276-0.292-0.505-0.558-0.62l-4.452-1.932c-0.506-0.221-1.095,0.011-1.315,0.518c-0.22,0.507,0.013,1.096,0.519,1.316   l4.032,1.75l1.43,4.6C15.009,70.346,15,70.357,15,70.375l3.947,15.775c0.194,0.709,1.032,1.35,1.584,1.35h12.297   c0.797,0,0.992-0.594,1.172-1.125l5-16.125C39.109,69.703,38.553,69.5,38,69.5"/>
</g>
</svg>