<?xml version="1.0" encoding="UTF-8"?>
<!-- Generator: Adobe Illustrator 17.0.1, SVG Export Plug-In . SVG Version: 6.00 Build 0)  -->
<!DOCTYPE svg PUBLIC "-//W3C//DTD SVG 1.1//EN" "http://www.w3.org/Graphics/SVG/1.1/DTD/svg11.dtd">
<svg version="1.1" id="Layer_1" xmlns="http://www.w3.org/2000/svg" xmlns:xlink="http://www.w3.org/1999/xlink" x="0px" y="0px" width="50px" height="100px" viewBox="0 0 50 100" enable-background="new 0 0 50 100" xml:space="preserve">
<g>
	<path fill="#FFFFFF" d="M25,49C11.767,49,1,38.234,1,25S11.767,1,25,1s24,10.766,24,24S38.233,49,25,49"/>
	<path fill="#666666" d="M33.717,34.222l-13.163-9.138l13.117-9.318c0.849-0.6,1.021-1.743,0.386-2.544   c-0.64-0.801-1.845-0.96-2.694-0.355l-15.04,10.685c-0.335,0.236-0.56,0.558-0.675,0.908c-0.333,0.753-0.098,1.651,0.629,2.153   l15.162,10.532c0.855,0.596,2.064,0.423,2.689-0.384C34.754,35.955,34.571,34.817,33.717,34.222"/>
	<path fill="#666666" d="M25,0C11.193,0,0,11.192,0,25c0,13.807,11.193,25,25,25s25-11.193,25-25C50,11.192,38.807,0,25,0 M25,2   c12.682,0,23,10.317,23,23c0,12.682-10.318,23-23,23S2,37.682,2,25C2,12.317,12.318,2,25,2"/>
</g>
<g>
	<path fill="#666666" d="M25,99C11.767,99,1,88.234,1,75s10.767-24,24-24s24,10.766,24,24S38.233,99,25,99"/>
	<path fill="#FFFFFF" d="M33.717,84.222l-13.163-9.138l13.117-9.318c0.849-0.6,1.021-1.743,0.386-2.544   c-0.64-0.801-1.845-0.96-2.694-0.355l-15.04,10.685c-0.335,0.236-0.56,0.558-0.675,0.908c-0.333,0.753-0.098,1.651,0.629,2.153   l15.162,10.532c0.855,0.596,2.064,0.423,2.689-0.384C34.754,85.955,34.571,84.817,33.717,84.222"/>
	<path fill="#FFFFFF" d="M25,50C11.193,50,0,61.192,0,75c0,13.807,11.193,25,25,25s25-11.193,25-25C50,61.192,38.807,50,25,50    M25,52c12.682,0,23,10.317,23,23c0,12.682-10.318,23-23,23S2,87.682,2,75C2,62.317,12.318,52,25,52"/>
</g>
</svg>