<?xml version="1.0" encoding="UTF-8"?>
<!-- Generator: Adobe Illustrator 17.0.0, SVG Export Plug-In . SVG Version: 6.00 Build 0)  -->
<!DOCTYPE svg PUBLIC "-//W3C//DTD SVG 1.1//EN" "http://www.w3.org/Graphics/SVG/1.1/DTD/svg11.dtd">
<svg version="1.1" id="Layer_1" xmlns="http://www.w3.org/2000/svg" xmlns:xlink="http://www.w3.org/1999/xlink" x="0px" y="0px" width="30px" height="60px" viewBox="0 0 30 60" enable-background="new 0 0 30 60" xml:space="preserve">
<path fill="#808080" d="M12.615,18.809l4.894-3.598l-4.878-3.669c-0.316-0.237-0.38-0.687-0.144-1.002  c0.239-0.316,0.687-0.378,1.002-0.14l5.593,4.207c0.126,0.094,0.199,0.226,0.242,0.366c0.122,0.296,0.045,0.644-0.225,0.841  l-5.638,4.147c-0.318,0.234-0.768,0.166-1-0.151C12.229,19.491,12.297,19.043,12.615,18.809z"/>
<path fill="#808080" d="M29.5,15H29c0-3.867-1.566-7.364-4.1-9.899C22.365,2.566,18.868,1,15,1c-3.868,0-7.365,1.566-9.9,4.101  C2.566,7.636,1,11.133,1,15c0,3.868,1.566,7.365,4.1,9.9C7.635,27.434,11.132,29,15,29c3.868,0,7.365-1.566,9.9-4.1  c2.534-2.535,4.1-6.032,4.1-9.9H29.5H30c0,8.285-6.715,15-15,15C6.715,30,0,23.285,0,15C0,6.717,6.715,0,15,0  c8.285,0,15,6.717,15,15l0,0H29.5z"/>
<path fill="#666666" d="M29.5,45H29c0-3.867-1.566-7.364-4.1-9.899C22.365,32.566,18.868,31,15,31c-3.868,0-7.365,1.566-9.9,4.101  C2.566,37.636,1,41.133,1,45c0,3.868,1.566,7.365,4.1,9.9C7.635,57.434,11.132,59,15,59c3.868,0,7.365-1.566,9.9-4.1  c2.534-2.535,4.1-6.032,4.1-9.9H29.5H30c0,8.285-6.715,15-15,15C6.715,60,0,53.285,0,45c0-8.283,6.715-15,15-15  c8.285,0,15,6.717,15,15l0,0H29.5z"/>
<path fill="#666666" d="M12.615,48.809l4.894-3.598l-4.878-3.669c-0.316-0.237-0.38-0.687-0.144-1.002  c0.239-0.316,0.687-0.378,1.002-0.14l5.593,4.207c0.126,0.094,0.199,0.226,0.242,0.366c0.122,0.296,0.045,0.644-0.225,0.841  l-5.638,4.147c-0.318,0.234-0.768,0.166-1-0.151C12.229,49.491,12.297,49.043,12.615,48.809z"/>
</svg>