<?xml version="1.0" encoding="UTF-8"?>
<!-- Generator: Adobe Illustrator 17.0.1, SVG Export Plug-In . SVG Version: 6.00 Build 0)  -->
<!DOCTYPE svg PUBLIC "-//W3C//DTD SVG 1.1//EN" "http://www.w3.org/Graphics/SVG/1.1/DTD/svg11.dtd">
<svg version="1.1" id="Layer_1" xmlns="http://www.w3.org/2000/svg" xmlns:xlink="http://www.w3.org/1999/xlink" x="0px" y="0px" width="50px" height="100px" viewBox="0 0 50 100" enable-background="new 0 0 50 100" xml:space="preserve">
<path fill="#FFFFFF" d="M25,49c13.233,0,24-10.766,24-24S38.233,1,25,1S1,11.766,1,25S11.767,49,25,49"/>
<path fill="#666666" d="M16.283,34.222l13.163-9.138l-13.117-9.318c-0.849-0.6-1.021-1.743-0.386-2.544  c0.64-0.801,1.845-0.96,2.694-0.355l15.04,10.685c0.335,0.236,0.56,0.558,0.675,0.908c0.333,0.753,0.098,1.651-0.629,2.153  L18.561,37.145c-0.855,0.596-2.064,0.423-2.689-0.384C15.246,35.955,15.429,34.817,16.283,34.222"/>
<path fill="#666666" d="M25,0c13.807,0,25,11.192,25,25c0,13.807-11.193,25-25,25S0,38.807,0,25C0,11.192,11.193,0,25,0 M25,2  C12.318,2,2,12.317,2,25c0,12.682,10.318,23,23,23s23-10.318,23-23C48,12.317,37.682,2,25,2"/>
<path fill="#666666" d="M25,99c13.233,0,24-10.766,24-24S38.233,51,25,51S1,61.766,1,75S11.767,99,25,99"/>
<path fill="#FFFFFF" d="M16.283,84.222l13.163-9.138l-13.117-9.318c-0.849-0.6-1.021-1.743-0.386-2.544  c0.64-0.801,1.845-0.96,2.694-0.355l15.04,10.685c0.335,0.236,0.56,0.558,0.675,0.908c0.333,0.753,0.098,1.651-0.629,2.153  L18.561,87.145c-0.855,0.596-2.064,0.423-2.689-0.384C15.246,85.955,15.429,84.817,16.283,84.222"/>
<path fill="#FFFFFF" d="M25,50c13.807,0,25,11.192,25,25c0,13.807-11.193,25-25,25S0,88.807,0,75C0,61.192,11.193,50,25,50 M25,52  C12.318,52,2,62.317,2,75c0,12.682,10.318,23,23,23s23-10.318,23-23C48,62.317,37.682,52,25,52"/>
</svg>