<?xml version="1.0" encoding="UTF-8"?>
<!-- Generator: Adobe Illustrator 17.0.0, SVG Export Plug-In . SVG Version: 6.00 Build 0)  -->
<!DOCTYPE svg PUBLIC "-//W3C//DTD SVG 1.1//EN" "http://www.w3.org/Graphics/SVG/1.1/DTD/svg11.dtd">
<svg version="1.1" id="Layer_1" xmlns="http://www.w3.org/2000/svg" xmlns:xlink="http://www.w3.org/1999/xlink" x="0px" y="0px" width="36px" height="72px" viewBox="0 0 36 72" enable-background="new 0 0 36 72" xml:space="preserve">
<g>
	<ellipse fill="#FFFFFF" cx="15.079" cy="33.777" rx="2.273" ry="2.223"/>
	<path fill="#FFFFFF" d="M34.786,9H9.384L7.92,2.781L1.657,0.162c-0.61-0.249-1.31-0.003-1.565,0.596   c-0.254,0.596,0.035,1.264,0.645,1.513L5.87,4.351c0,0,1.519,6.156,1.602,6.275l4.501,17.694C12.205,29.15,13.208,30,13.87,30   h14.724c0.953,0,1.187-0.798,1.403-1.42l5.986-18.795C36.114,9.146,35.446,9,34.786,9z M31.194,17.996l-21.036-5.274L9.675,10   h23.793L31.194,17.996z"/>
	<ellipse fill="#FFFFFF" cx="27.424" cy="33.777" rx="2.27" ry="2.223"/>
</g>
<g>
	<ellipse fill="#E8E8E8" cx="15.079" cy="69.777" rx="2.273" ry="2.223"/>
	<path fill="#E8E8E8" d="M34.786,45H9.384L7.92,38.781l-6.263-2.619c-0.61-0.249-1.31-0.003-1.565,0.596   c-0.254,0.596,0.035,1.264,0.645,1.513l5.133,2.079c0,0,1.519,6.156,1.602,6.275l4.501,17.694C12.205,65.15,13.208,66,13.87,66   h14.724c0.953,0,1.187-0.798,1.403-1.42l5.986-18.795C36.114,45.146,35.446,45,34.786,45z M31.194,53.996l-21.036-5.274L9.675,46   h23.793L31.194,53.996z"/>
	<ellipse fill="#E8E8E8" cx="27.424" cy="69.777" rx="2.27" ry="2.223"/>
</g>
</svg>