<?xml version="1.0" encoding="utf-8"?>
<!-- Generator: Adobe Illustrator 19.1.0, SVG Export Plug-In . SVG Version: 6.00 Build 0)  -->
<svg version="1.1" id="Layer_1" xmlns="http://www.w3.org/2000/svg" xmlns:xlink="http://www.w3.org/1999/xlink" x="0px" y="0px"
	 viewBox="0 0 35.7 36.5" style="enable-background:new 0 0 35.7 36.5;" xml:space="preserve">
<style type="text/css">
	.st0{fill:#FFFFFF;}
</style>
<g>
	<g>
		<circle class="st0" cx="15" cy="34.2" r="2.3"/>
		<circle class="st0" cx="27.2" cy="34.2" r="2.3"/>
		<g>
			<g>
				<path class="st0" d="M34.5,8.8H9.3L7.9,2.7L1.6,0.1C1-0.2,0.3,0.1,0.1,0.7c-0.3,0.6,0,1.3,0.6,1.6l5.1,2.1c0,0,1.5,6.2,1.6,6.4
					l4.5,17.8c0.2,0.8,1.2,1.6,1.9,1.6h14.6c0.9,0,1.2-0.7,1.4-1.3l5.9-19.2C35.8,9.1,35.2,8.8,34.5,8.8z M30.9,18.3L10.1,13
					l-0.5-2.7h23.6L30.9,18.3z"/>
			</g>
		</g>
	</g>
</g>
</svg>
