<?xml version="1.0" encoding="utf-8"?>
<!-- Generator: Adobe Illustrator 19.1.0, SVG Export Plug-In . SVG Version: 6.00 Build 0)  -->
<svg version="1.1" id="Layer_1" xmlns="http://www.w3.org/2000/svg" xmlns:xlink="http://www.w3.org/1999/xlink" x="0px" y="0px"
	 viewBox="0 0 30 30" style="enable-background:new 0 0 30 30;" xml:space="preserve">
<style type="text/css">
	.st0{fill:#808080;}
</style>
<g>
	<g>
		<path class="st0" d="M15.5,4c6.1,0,11,4.9,11,11s-4.9,11-11,11s-11-4.9-11-11S9.4,4,15.5,4 M15.5,3c-6.6,0-12,5.4-12,12
			s5.4,12,12,12s12-5.4,12-12S22.1,3,15.5,3L15.5,3z"/>
	</g>
	<polygon class="st0" points="19.1,8.7 15.4,12.3 12.3,9.1 9.6,11.8 12.7,15 9.6,18.2 12.3,20.9 15.4,17.7 19.1,21.3 21.8,18.6 
		18.1,15 21.8,11.4 	"/>
</g>
</svg>
