<?xml version="1.0" encoding="utf-8"?>
<!-- Generator: Adobe Illustrator 19.1.0, SVG Export Plug-In . SVG Version: 6.00 Build 0)  -->
<svg version="1.1" id="Layer_1" xmlns="http://www.w3.org/2000/svg" xmlns:xlink="http://www.w3.org/1999/xlink" x="0px" y="0px"
	 viewBox="0 0 270 90" style="enable-background:new 0 0 270 90;" xml:space="preserve">
<style type="text/css">
	.st0{fill:#1A6CA4;}
	.st1{fill:#FFFFFF;}
</style>
<g>
	<path class="st0" d="M258.8,20.3H69.9c-3.8-11.4-14.2-19-26.1-19s-21.8,7.6-25.6,19h-7.2c-4.3,0-8.1,3.1-8.1,7.3v48.1
		c0,2.3,1.2,4.4,2.8,5.8c-0.3,0.8-0.6,1.6-1,2.4c-0.3,0.6-0.5,1.3-0.9,2l-1,2.8c0,0,1.9-0.7,2.5-0.8c4.6-1.2,9.5-2.3,11.7-3.4
		c0.4-0.2,0.8-0.5,1.1-0.5h240.4c4.3,0,8.2-3.9,8.2-8.1V27.7C267,23.4,263.1,20.3,258.8,20.3z"/>
	<path class="st1" d="M67.4,18.4C61.8,5.6,46.8-0.2,33.9,5.4C26,8.9,20.8,16,19.3,23.8c1.8-6.4,6.4-12,13-14.9
		C43.9,3.8,57.6,9,62.8,20.7c5.2,11.7-0.1,25.3-11.8,30.4c-4.9,2.2-10.2,2.5-15,1.2c0,0,0,0.1,0,0.1c5.9,2,12.5,2,18.6-0.7
		C67.3,46.1,73.1,31.2,67.4,18.4z"/>
	<path class="st1" d="M60.1,21.7C55.6,11.7,43.8,7.1,33.7,11.6c-6.2,2.7-10.4,8.3-11.5,14.5c1.4-5.1,5-9.5,10.2-11.7
		c9.2-4.1,20,0.1,24,9.3c4.1,9.2-0.1,19.9-9.3,24c-3.3,1.5-6.8,1.8-10.1,1.3c0,0.1,0,0.1-0.1,0.2c4.2,1.1,8.7,0.8,13-1.1
		C60,43.6,64.6,31.8,60.1,21.7z"/>
	<path class="st1" d="M53.4,25.4c-3.2-7.3-11.8-10.6-19.1-7.4c-4.5,2-7.5,6-8.4,10.5c1-3.7,3.6-6.8,7.4-8.5
		c6.7-2.9,14.4,0.1,17.4,6.7c2.9,6.6-0.1,14.4-6.7,17.3c-1.9,0.8-3.8,1.2-5.7,1.1c0,0.1-0.1,0.2-0.1,0.3c2.6,0.4,5.3,0.1,7.9-1.1
		C53.3,41.2,56.6,32.7,53.4,25.4z"/>
	<path class="st1" d="M4.7,86.2c0.3-0.7,0.6-1.4,0.9-2c0.7-1.5,1.3-2.7,1.9-4.6l2.4-7.5c0,0,3.9-11.6,4.2-12.5
		c3.7-11.2,6.9-20.8,17.4-28.3c4.3-3,7-4.6,9.3-5.4l0.4-0.1l1.8,1.4l-0.4,0.6c-5.7,7.9-9.6,17.6-12.9,26.9l-3,8.3l-2.9,8.1l-1,3.2
		c-1.5,5-2.9,7.9-5.7,9.4c-2.1,1.1-6.9,2.3-11.5,3.5C5,87.3,4,87.7,4,87.7L4.7,86.2z"/>
	<g>
		<path class="st1" d="M58.3,62.6c0,0.5-0.4,0.9-0.9,0.9H37.6c-0.5,0-0.9-0.4-0.9-0.9v-1.8c0-0.5,0.4-0.9,0.9-0.9h19.8
			c0.5,0,0.9,0.4,0.9,0.9V62.6z M58.3,69.8c0,0.5-0.4,0.9-0.9,0.9H37.6c-0.5,0-0.9-0.4-0.9-0.9V68c0-0.5,0.4-0.9,0.9-0.9h19.8
			c0.5,0,0.9,0.4,0.9,0.9V69.8z M58.3,77c0,0.5-0.4,0.9-0.9,0.9H37.6c-0.5,0-0.9-0.4-0.9-0.9v-1.8c0-0.5,0.4-0.9,0.9-0.9h19.8
			c0.5,0,0.9,0.4,0.9,0.9V77z"/>
	</g>
</g>
</svg>
