<?xml version="1.0" encoding="utf-8"?>
<!-- Generator: Adobe Illustrator 19.1.0, SVG Export Plug-In . SVG Version: 6.00 Build 0)  -->
<svg version="1.1" id="Layer_1" xmlns="http://www.w3.org/2000/svg" xmlns:xlink="http://www.w3.org/1999/xlink" x="0px" y="0px"
	 viewBox="0 0 34 34" style="enable-background:new 0 0 34 34;" xml:space="preserve">
<style type="text/css">
	.st0{fill:#FFFFFF;}
</style>
<g>
	<path class="st0" d="M8.2,2.9l4.5,8c0,0-3.5,2,0.8,9.5c1.6,2.3,4.1,4.6,6.6,3.4c1.2,1.8,4.7,7.9,4.7,7.9s-4.8,4.5-11.2-3.6
		C9.3,22.6,4.4,14.3,4.5,7.8C4.7,5.8,6.1,4.2,8.2,2.9z"/>
	<path class="st0" d="M15.7,7.7C16,8.3,15.8,9,15.3,9.3l-1,0.6c-0.5,0.3-1.3,0.1-1.6-0.4L9.3,3.2C8.9,2.7,9.1,2,9.7,1.7l1-0.6
		c0.5-0.3,1.3-0.1,1.6,0.4L15.7,7.7z"/>
	<path class="st0" d="M28.3,28.5c0.3,0.5,0.1,1.3-0.4,1.6l-1,0.6c-0.5,0.3-1.3,0.1-1.6-0.4L21.9,24c-0.3-0.5-0.1-1.3,0.4-1.6l1-0.6
		c0.5-0.3,1.3-0.1,1.6,0.4L28.3,28.5z"/>
</g>
</svg>
