<?xml version="1.0" encoding="utf-8"?>
<!-- Generator: Adobe Illustrator 19.1.0, SVG Export Plug-In . SVG Version: 6.00 Build 0)  -->
<svg version="1.1" id="Layer_1" xmlns="http://www.w3.org/2000/svg" xmlns:xlink="http://www.w3.org/1999/xlink" x="0px" y="0px"
	 viewBox="0 0 34 34" style="enable-background:new 0 0 34 34;" xml:space="preserve">
<style type="text/css">
	.st0{fill:#FFFFFF;}
</style>
<g>
	<g>
		<path class="st0" d="M25.3,14.6h-0.5c0,1.5-0.6,2.8-1.6,3.8c-1,1-2.3,1.6-3.8,1.6c-1.5,0-2.8-0.6-3.8-1.6c-1-1-1.6-2.3-1.6-3.8
			c0-1.5,0.6-2.8,1.6-3.8c1-1,2.3-1.6,3.8-1.6c1.5,0,2.8,0.6,3.8,1.6c1,1,1.6,2.3,1.6,3.8H25.3h0.5c0-3.5-2.8-6.3-6.3-6.3
			c-3.5,0-6.3,2.8-6.3,6.3c0,3.5,2.8,6.3,6.3,6.3c3.5,0,6.3-2.8,6.3-6.3H25.3z"/>
		<path class="st0" d="M10.3,25l3.8-3.8c0.4-0.4,0.4-1,0-1.4c-0.4-0.4-1-0.4-1.4,0l-3.8,3.8c-0.4,0.4-0.4,1,0,1.4
			C9.3,25.4,9.9,25.4,10.3,25"/>
	</g>
	<path class="st0" d="M16.8,2c-8.3,0-15,6.7-15,15c0,8.3,6.7,15,15,15s15-6.7,15-15C31.8,8.7,25.1,2,16.8,2z M16.8,31
		c-7.7,0-14-6.3-14-14s6.3-14,14-14s14,6.3,14,14S24.5,31,16.8,31z"/>
</g>
</svg>
