<?xml version="1.0" encoding="UTF-8"?>
<!-- Generator: Adobe Illustrator 19.1.0, SVG Export Plug-In . SVG Version: 6.00 Build 0)  -->
<svg version="1.1" id="Layer_1" xmlns="http://www.w3.org/2000/svg" xmlns:xlink="http://www.w3.org/1999/xlink" x="0px" y="0px" viewBox="0 0 88 68" style="enable-background:new 0 0 88 68;" xml:space="preserve">
<style type="text/css">
	.st0{fill:#196DA5;}
</style>
<g>
	<g>
		<path class="st0" d="M46.9,7.1h-0.5c0,1.4-1.1,2.5-2.5,2.5c-1.4,0-2.5-1.1-2.5-2.5c0-1.4,1.1-2.5,2.5-2.5c1.4,0,2.5,1.1,2.5,2.5    H46.9h0.5c0-1.9-1.6-3.5-3.5-3.5c-1.9,0-3.5,1.6-3.5,3.5c0,1.9,1.6,3.5,3.5,3.5c1.9,0,3.5-1.6,3.5-3.5H46.9z"/>
		<path class="st0" d="M53.6,13c1.6-1.5,2.4-3.5,2.4-5.5c0-2-0.7-3.9-2.2-5.5l-0.7,0.7C54.4,4.1,55,5.8,55,7.5    c0,1.8-0.7,3.5-2.1,4.8L53.6,13L53.6,13z"/>
		<path class="st0" d="M51.9,11.8c1.2-1.1,1.9-2.7,1.9-4.3c0-1.5-0.6-3.1-1.7-4.3l-0.7,0.7c1,1,1.4,2.3,1.4,3.6    c0,1.3-0.5,2.6-1.5,3.5L51.9,11.8L51.9,11.8z"/>
		<path class="st0" d="M50.1,10.5c0.9-0.8,1.3-1.9,1.3-3c0-1.1-0.4-2.2-1.2-3l-0.7,0.7c0.6,0.7,0.9,1.5,0.9,2.4c0,0.9-0.3,1.7-1,2.3    L50.1,10.5L50.1,10.5z"/>
		<path class="st0" d="M34.1,2.1c-1.6,1.5-2.4,3.5-2.4,5.5c0,1.9,0.7,3.9,2.2,5.5l0.7-0.7c-1.3-1.4-1.9-3.1-1.9-4.8    c0-1.8,0.7-3.5,2.1-4.8L34.1,2.1L34.1,2.1z"/>
		<path class="st0" d="M35.8,3.4c-1.2,1.1-1.9,2.7-1.9,4.3c0,1.5,0.6,3,1.7,4.3l0.7-0.7c-0.9-1-1.4-2.3-1.4-3.6    c0-1.3,0.5-2.6,1.5-3.6L35.8,3.4L35.8,3.4z"/>
		<path class="st0" d="M37.5,4.6c-0.9,0.8-1.3,1.9-1.3,3.1c0,1.1,0.4,2.2,1.2,3l0.7-0.7c-0.6-0.7-0.9-1.5-0.9-2.3    c0-0.9,0.3-1.7,1-2.3L37.5,4.6L37.5,4.6z"/>
	</g>
	<g>
		<path class="st0" d="M59.1,25.2l7-5l-4-3c0,0-6.5,4.8-7,5L59.1,25.2z"/>
		<path class="st0" d="M40.7,28.1l20.2,17.5L75.2,33L66,26.4v-5.6l-7,5l-4.3-3.2l-0.7-0.5l0.8-0.3l0,0l0,0l0.2-0.1    c0.1-0.1,0.3-0.2,0.5-0.4c0.4-0.3,1-0.7,1.6-1.1c0.2-0.2,0.5-0.4,0.7-0.5l-3.2-2.5L19.7,41.4l0.5,1.1L40.7,28.1z"/>
		<path class="st0" d="M40.6,29L26,39.3v24.2l31,3.6l11-12.6V40l-7.7,6.5L40.6,29z M38,58.1L29,57V44.1l9,0.9V58.1z M50,65l-8-1    V45.1l8,0.9V65z"/>
		<path class="st0" d="M22,55h-2v-3h-3v3h-2v-3h-3v11h3v-3h2v3h3v-3h2v3h3V52h-3V55z M17,59h-2v-3h2V59z M22,59h-2v-3h2V59z"/>
	</g>
</g>
</svg>