<?xml version="1.0" encoding="UTF-8"?>
<!-- Generator: Adobe Illustrator 19.1.0, SVG Export Plug-In . SVG Version: 6.00 Build 0)  -->
<svg version="1.1" id="Layer_1" xmlns="http://www.w3.org/2000/svg" xmlns:xlink="http://www.w3.org/1999/xlink" x="0px" y="0px" viewBox="0 0 88 68" style="enable-background:new 0 0 88 68;" xml:space="preserve">
<style type="text/css">
	.st0{fill:#196DA5;}
</style>
<g>
	<g>
		<g>
			<path class="st0" d="M69.4,56.9c0,1.3,0,3.1,0.1,4.1c-2,0.6-6.6,1.2-8.9,1.2c-2.3,0-6.3-0.2-9.3-1.7c-4.4-2.2-6.9-6.1-6.9-10.5     c0-4.9,2.4-8.4,5.5-10.5c3.2-2.2,6.7-2.8,10.3-2.8c3,0,6.7,0.5,7.8,0.9c0.1-0.6,0.5-2.5,0.6-3.2l0.8-0.2     c-0.2,1.4-0.6,7.5-0.5,10.8l-0.8-0.4c-0.1-1.2-0.2-2.4-0.4-3.2c-0.9-1.1-3.4-3.4-9.1-3.4c-6.1,0-10.1,4.5-10.1,10.1     c0,5.7,4.9,13,12.4,13c0.9,0,3-0.1,4.4-0.9c0.1-0.5,0.1-1.7,0.1-3.5v-1.8c0-1.1,0-2.2-0.1-2.8c-0.7-0.1-2.9-0.2-3.5-0.4l-0.2-0.7     c1.8,0.1,4.5,0.1,5.7,0.1c1.7,0,5.1,0,5.5-0.1l-0.2,0.7c-0.3,0-2.3,0.2-3,0.4c-0.1,0.6-0.1,2.9-0.1,3.9V56.9z"/>
		</g>
		<rect x="23" y="20" class="st0" width="5" height="2"/>
		<rect x="30" y="20" class="st0" width="5" height="2"/>
		<path class="st0" d="M39,30.4V28h-2V17H21v11h-2v3c-1,0.9-2,2.3-2,4v27c0,2.8,2.4,5,5.2,5h15c2.8,0,4.8-2.2,4.8-5V35    C42,33,41,31.2,39,30.4z M22,18h14v9H22V18z M33.1,55.8c-1.2,1.1-3.2,2-5.7,2c-0.7,0-1.6,0-2.5-0.3c-0.2,0.3-0.3,0.7-0.3,1.1    L24,58.8c0.3-1.3,0.4-4.3,0.4-5.7l0.6,0.3c0,1,0,1.5,0.1,2.1c0.8,1.3,2.4,1.5,3.4,1.5c2.3,0,4.2-1.9,4.2-4.2c0-2.8-2.5-4.3-5.6-5    c0.7-0.7,3.7-3.7,5-5.7h-3.7c-1.3,0-2.3,0.1-2.7,0.3c-0.2,0.3-0.3,0.9-0.5,1.7l-0.6,0.1c0.2-1.4,0.4-4.5,0.5-5.9l0.5,0.2    c0,0.5,0,1,0,1.5c1,0.1,2.3,0.1,3.8,0.1h5.6c-1.5,2-4.5,4.9-5.5,6.1c3.5,0.9,5.7,2.7,5.7,5.1C35.3,52.8,34.6,54.4,33.1,55.8z"/>
	</g>
	<g>
		<path class="st0" d="M48,7.1h-0.5c0,1.4-1.1,2.5-2.5,2.5c-1.4,0-2.5-1.1-2.5-2.5c0-1.4,1.1-2.5,2.5-2.5c1.4,0,2.5,1.1,2.5,2.5H48    h0.5c0-1.9-1.6-3.5-3.5-3.5c-1.9,0-3.5,1.6-3.5,3.5c0,1.9,1.6,3.5,3.5,3.5c1.9,0,3.5-1.6,3.5-3.5H48z"/>
		<path class="st0" d="M54.7,13c1.6-1.5,2.4-3.5,2.4-5.5c0-2-0.7-3.9-2.2-5.5l-0.7,0.7c1.3,1.4,1.9,3.1,1.9,4.9    c0,1.8-0.7,3.5-2.1,4.8L54.7,13L54.7,13z"/>
		<path class="st0" d="M53,11.8c1.2-1.1,1.9-2.7,1.9-4.3c0-1.5-0.6-3.1-1.7-4.3l-0.7,0.7c1,1,1.4,2.3,1.4,3.6c0,1.3-0.5,2.6-1.5,3.5    L53,11.8L53,11.8z"/>
		<path class="st0" d="M51.3,10.5c0.9-0.8,1.3-1.9,1.3-3c0-1.1-0.4-2.2-1.2-3l-0.7,0.7c0.6,0.7,0.9,1.5,0.9,2.4c0,0.9-0.3,1.7-1,2.3    L51.3,10.5L51.3,10.5z"/>
		<path class="st0" d="M35.2,2.1c-1.6,1.5-2.4,3.5-2.4,5.5c0,1.9,0.7,3.9,2.2,5.5l0.7-0.7c-1.3-1.4-1.9-3.1-1.9-4.8    c0-1.8,0.7-3.5,2.1-4.8L35.2,2.1L35.2,2.1z"/>
		<path class="st0" d="M37,3.4c-1.2,1.1-1.9,2.7-1.9,4.3c0,1.5,0.6,3,1.7,4.3l0.7-0.7c-0.9-1-1.4-2.3-1.4-3.6c0-1.3,0.5-2.6,1.5-3.6    L37,3.4L37,3.4z"/>
		<path class="st0" d="M38.7,4.6c-0.9,0.8-1.3,1.9-1.3,3.1c0,1.1,0.4,2.2,1.2,3l0.7-0.7c-0.6-0.7-0.9-1.5-0.9-2.3    c0-0.9,0.3-1.7,1-2.3L38.7,4.6L38.7,4.6z"/>
	</g>
</g>
</svg>