<?xml version="1.0" encoding="UTF-8"?>
<!-- Generator: Adobe Illustrator 19.1.0, SVG Export Plug-In . SVG Version: 6.00 Build 0)  -->
<svg version="1.1" id="Layer_1" xmlns="http://www.w3.org/2000/svg" xmlns:xlink="http://www.w3.org/1999/xlink" x="0px" y="0px" viewBox="0 0 88 68" style="enable-background:new 0 0 88 68;" xml:space="preserve">
<style type="text/css">
	.st0{fill:#196DA5;}
	.st1{fill:#1C344D;}
</style>
<g>
	<g>
		<path class="st0" d="M46.8,7.1h-0.5c0,1.4-1.1,2.5-2.5,2.5c-1.4,0-2.5-1.1-2.5-2.5c0-1.4,1.1-2.5,2.5-2.5c1.4,0,2.5,1.1,2.5,2.5    H46.8h0.5c0-1.9-1.6-3.5-3.5-3.5c-1.9,0-3.5,1.6-3.5,3.5c0,1.9,1.6,3.5,3.5,3.5c1.9,0,3.5-1.6,3.5-3.5H46.8z"/>
		<path class="st0" d="M53.5,13c1.6-1.5,2.4-3.5,2.4-5.5c0-2-0.7-3.9-2.2-5.5l-0.7,0.7c1.3,1.4,1.9,3.1,1.9,4.9    c0,1.8-0.7,3.5-2.1,4.8L53.5,13L53.5,13z"/>
		<path class="st0" d="M51.7,11.8c1.2-1.1,1.9-2.7,1.9-4.3c0-1.5-0.6-3.1-1.7-4.3l-0.7,0.7c1,1,1.4,2.3,1.4,3.6    c0,1.3-0.5,2.6-1.5,3.5L51.7,11.8L51.7,11.8z"/>
		<path class="st0" d="M50,10.5c0.9-0.8,1.3-1.9,1.3-3c0-1.1-0.4-2.2-1.2-3l-0.7,0.7c0.6,0.7,0.9,1.5,0.9,2.4c0,0.9-0.3,1.7-1,2.3    L50,10.5L50,10.5z"/>
		<path class="st0" d="M34,2.1c-1.6,1.5-2.4,3.5-2.4,5.5c0,1.9,0.7,3.9,2.2,5.5l0.7-0.7c-1.3-1.4-1.9-3.1-1.9-4.8    c0-1.8,0.7-3.5,2.1-4.8L34,2.1L34,2.1z"/>
		<path class="st0" d="M35.7,3.4c-1.2,1.1-1.9,2.7-1.9,4.3c0,1.5,0.6,3,1.7,4.3l0.7-0.7c-0.9-1-1.4-2.3-1.4-3.6    c0-1.3,0.5-2.6,1.5-3.6L35.7,3.4L35.7,3.4z"/>
		<path class="st0" d="M37.4,4.6c-0.9,0.8-1.3,1.9-1.3,3.1c0,1.1,0.4,2.2,1.2,3L38,10c-0.6-0.7-0.9-1.5-0.9-2.3c0-0.9,0.3-1.7,1-2.3    L37.4,4.6L37.4,4.6z"/>
	</g>
	<g>
		<polygon class="st0" points="56.4,44.6 69.4,34.2 49.3,17.3 18,38.5 19.1,40 36.9,27.8   "/>
		<path class="st0" d="M56.2,45.9L36.8,29L23,38.5v25.1l30.1,3.5L64,55V39.5L56.2,45.9z M35,56.5l-8-1V45l8,1V56.5z M44,65.2    l-6.9-1.1L36.6,46l7.4,0.8V65.2z"/>
	</g>
	<line class="st1" x1="44.9" y1="14" x2="45" y2="21.2"/>
</g>
</svg>