<?xml version="1.0" encoding="UTF-8"?>
<!-- Generator: Adobe Illustrator 19.1.0, SVG Export Plug-In . SVG Version: 6.00 Build 0)  -->
<svg version="1.1" id="Layer_1" xmlns="http://www.w3.org/2000/svg" xmlns:xlink="http://www.w3.org/1999/xlink" x="0px" y="0px" viewBox="0 0 88 68" style="enable-background:new 0 0 88 68;" xml:space="preserve">
<style type="text/css">
	.st0{fill:#196DA5;}
</style>
<g>
	<g>
		<path class="st0" d="M46.5,7.1H46c0,1.4-1.1,2.5-2.5,2.5c-1.4,0-2.5-1.1-2.5-2.5c0-1.4,1.1-2.5,2.5-2.5c1.4,0,2.5,1.1,2.5,2.5    H46.5H47c0-1.9-1.6-3.5-3.5-3.5c-1.9,0-3.5,1.6-3.5,3.5c0,1.9,1.6,3.5,3.5,3.5c1.9,0,3.5-1.6,3.5-3.5H46.5z"/>
		<path class="st0" d="M53.2,13c1.6-1.5,2.4-3.5,2.4-5.5c0-2-0.7-3.9-2.2-5.5l-0.7,0.7c1.3,1.4,1.9,3.1,1.9,4.9    c0,1.8-0.7,3.5-2.1,4.8L53.2,13L53.2,13z"/>
		<path class="st0" d="M51.4,11.8c1.2-1.1,1.9-2.7,1.9-4.3c0-1.5-0.6-3.1-1.7-4.3l-0.7,0.7c1,1,1.4,2.3,1.4,3.6    c0,1.3-0.5,2.6-1.5,3.5L51.4,11.8L51.4,11.8z"/>
		<path class="st0" d="M49.7,10.5c0.9-0.8,1.3-1.9,1.3-3c0-1.1-0.4-2.2-1.2-3l-0.7,0.7C49.7,5.8,50,6.6,50,7.5c0,0.9-0.3,1.7-1,2.3    L49.7,10.5L49.7,10.5z"/>
		<path class="st0" d="M33.7,2.1c-1.6,1.5-2.4,3.5-2.4,5.5c0,1.9,0.7,3.9,2.2,5.5l0.7-0.7c-1.3-1.4-1.9-3.1-1.9-4.8    c0-1.8,0.7-3.5,2.1-4.8L33.7,2.1L33.7,2.1z"/>
		<path class="st0" d="M35.4,3.4c-1.2,1.1-1.9,2.7-1.9,4.3c0,1.5,0.6,3,1.7,4.3l0.7-0.7c-0.9-1-1.4-2.3-1.4-3.6    c0-1.3,0.5-2.6,1.5-3.6L35.4,3.4L35.4,3.4z"/>
		<path class="st0" d="M37.1,4.6c-0.9,0.8-1.3,1.9-1.3,3.1c0,1.1,0.4,2.2,1.2,3l0.7-0.7c-0.6-0.7-0.9-1.5-0.9-2.3    c0-0.9,0.3-1.7,1-2.3L37.1,4.6L37.1,4.6z"/>
	</g>
	<g>
		<path class="st0" d="M52.3,18H33.8C30,18,27,21,27,24.8v35.5c0,3.7,3,6.8,6.8,6.8h18.5c3.7,0,6.8-3,6.8-6.8V24.8    C59,21,56,18,52.3,18z M42.9,65.7c-1.2,0-2.1-1-2.1-2.1s1-2.1,2.1-2.1s2.1,1,2.1,2.1S44,65.7,42.9,65.7z M57,60H29V23h28V60z"/>
		<rect x="35.8" y="53.5" class="st0" width="2.8" height="3.7"/>
		<rect x="39.5" y="49.8" class="st0" width="2.8" height="7.4"/>
		<rect x="43.2" y="46.1" class="st0" width="2.8" height="11.1"/>
		<rect x="46.9" y="43.4" class="st0" width="2.8" height="13.9"/>
		<g>
			<path class="st0" d="M50.7,33.1c-2.3-2-4.8-3.1-7.9-3.1S37.3,31,35,33.1c-0.1,0-0.1,0.1-0.2,0.1c-0.2,0-1.7-1.4-1.7-1.7     c0-0.1,0-0.2,0.1-0.2c2.5-2.5,6.1-3.9,9.7-3.9c3.5,0,7.1,1.4,9.7,3.9c0.1,0.1,0.1,0.1,0.1,0.2c0,0.2-1.4,1.7-1.7,1.7     C50.8,33.2,50.8,33.1,50.7,33.1z M48,35.8c-1.6-1.3-3-2-5.2-2c-3,0-5.3,2.1-5.4,2.1c-0.2,0-1.7-1.4-1.7-1.7c0-0.1,0-0.2,0.1-0.2     c1.8-1.8,4.5-2.8,7-2.8c2.5,0,5.2,1,7,2.8c0.1,0.1,0.1,0.1,0.1,0.2c0,0.2-1.4,1.7-1.7,1.7C48.2,35.8,48.1,35.8,48,35.8z      M42.8,37.6c-1.5,0-2.5,1-2.7,1c-0.2,0-1.7-1.4-1.7-1.7c0-0.1,0-0.2,0.1-0.2c1.1-1.1,2.8-1.6,4.3-1.6c1.5,0,3.2,0.6,4.3,1.6     c0.1,0.1,0.1,0.1,0.1,0.2c0,0.2-1.4,1.7-1.7,1.7C45.4,38.5,44.3,37.6,42.8,37.6z M41.2,39.6c0-0.5,1.3-0.8,1.6-0.8     c0.4,0,1.6,0.3,1.6,0.8c0,0.3-1.4,1.7-1.6,1.7S41.2,39.8,41.2,39.6z"/>
		</g>
	</g>
</g>
</svg>