<?xml version="1.0" encoding="UTF-8"?>
<!-- Generator: Adobe Illustrator 19.1.0, SVG Export Plug-In . SVG Version: 6.00 Build 0)  -->
<svg version="1.1" id="Layer_1" xmlns="http://www.w3.org/2000/svg" xmlns:xlink="http://www.w3.org/1999/xlink" x="0px" y="0px" viewBox="0 0 88 68" style="enable-background:new 0 0 88 68;" xml:space="preserve">
<style type="text/css">
	.st0{fill:#196DA5;}
</style>
<g>
	<g>
		<path class="st0" d="M46.9,7.1h-0.5c0,1.4-1.1,2.5-2.5,2.5c-1.4,0-2.5-1.1-2.5-2.5c0-1.4,1.1-2.5,2.5-2.5c1.4,0,2.5,1.1,2.5,2.5    H46.9h0.5c0-1.9-1.6-3.5-3.5-3.5c-1.9,0-3.5,1.6-3.5,3.5c0,1.9,1.6,3.5,3.5,3.5c1.9,0,3.5-1.6,3.5-3.5H46.9z"/>
		<path class="st0" d="M53.6,13c1.6-1.5,2.4-3.5,2.4-5.5c0-2-0.7-3.9-2.2-5.5l-0.7,0.7C54.3,4.1,55,5.8,55,7.5    c0,1.8-0.7,3.5-2.1,4.8L53.6,13L53.6,13z"/>
		<path class="st0" d="M51.8,11.8c1.2-1.1,1.9-2.7,1.9-4.3c0-1.5-0.6-3.1-1.7-4.3l-0.7,0.7c1,1,1.4,2.3,1.4,3.6    c0,1.3-0.5,2.6-1.5,3.5L51.8,11.8L51.8,11.8z"/>
		<path class="st0" d="M50.1,10.5c0.9-0.8,1.3-1.9,1.3-3c0-1.1-0.4-2.2-1.2-3l-0.7,0.7c0.6,0.7,0.9,1.5,0.9,2.4c0,0.9-0.3,1.7-1,2.3    L50.1,10.5L50.1,10.5z"/>
		<path class="st0" d="M34.1,2.1c-1.6,1.5-2.4,3.5-2.4,5.5c0,1.9,0.7,3.9,2.2,5.5l0.7-0.7c-1.3-1.4-1.9-3.1-1.9-4.8    c0-1.8,0.7-3.5,2.1-4.8L34.1,2.1L34.1,2.1z"/>
		<path class="st0" d="M35.8,3.4c-1.2,1.1-1.9,2.7-1.9,4.3c0,1.5,0.6,3,1.7,4.3l0.7-0.7c-0.9-1-1.4-2.3-1.4-3.6    c0-1.3,0.5-2.6,1.5-3.6L35.8,3.4L35.8,3.4z"/>
		<path class="st0" d="M37.5,4.6c-0.9,0.8-1.3,1.9-1.3,3.1c0,1.1,0.4,2.2,1.2,3l0.7-0.7c-0.6-0.7-0.9-1.5-0.9-2.3    c0-0.9,0.3-1.7,1-2.3L37.5,4.6L37.5,4.6z"/>
	</g>
	<g>
		<polygon class="st0" points="25.3,67 53.1,67 53.1,58.7 41.3,57.7 25.3,61.1   "/>
		<polygon class="st0" points="25.3,59.5 41.4,55.9 53.1,56.8 53.1,49.4 41.3,48.5 25.3,53.6   "/>
		<polygon class="st0" points="25.3,51.8 41.4,46.6 53.1,47.6 53.1,41.1 41.3,39.2 25.3,46.2   "/>
		<polygon class="st0" points="25.3,44.4 41.4,37.4 53.1,39.2 53.1,31.8 41.2,28.1 25.3,38.8   "/>
		<polygon class="st0" points="25.3,37 41.3,26.3 53.1,30 53.1,22.6 41.2,17 25.3,29.6   "/>
		<polygon class="st0" points="54,58.7 54,67 62,67 62,59.5   "/>
		<polygon class="st0" points="54,49.5 54,56.8 62,57.6 62,50.2   "/>
		<g>
			<path class="st0" d="M62.2,40.8c-0.1-1.6,0.1-3.7-0.9-5c-1-1.4-3.1-2.5-3.1-2.5L54,31.9v7.4L62.2,40.8z"/>
			<path class="st0" d="M54,41.1v6.5l8.2,0.7c0,0-0.1-5.4-0.1-5.7L54,41.1z"/>
		</g>
	</g>
</g>
</svg>