<?xml version="1.0" encoding="utf-8"?>
<!-- Generator: Adobe Illustrator 19.1.0, SVG Export Plug-In . SVG Version: 6.00 Build 0)  -->
<svg version="1.1" id="Layer_1" xmlns="http://www.w3.org/2000/svg" xmlns:xlink="http://www.w3.org/1999/xlink" x="0px" y="0px"
	 viewBox="0 0 25 25" style="enable-background:new 0 0 25 25;" xml:space="preserve">
<style type="text/css">
	.st0{fill:#FFFFFF;}
</style>
<g>
	<path class="st0" d="M3.5,20.9c0,0.2-0.2,0.4-0.4,0.4H0.4c-0.2,0-0.4-0.2-0.4-0.4v-2.3c0-0.2,0.2-0.4,0.4-0.4h2.6
		c0.2,0,0.4,0.2,0.4,0.4V20.9z M8.7,20.9c0,0.2-0.2,0.4-0.4,0.4H5.7c-0.2,0-0.4-0.2-0.4-0.4v-3.8c0-0.2,0.2-0.4,0.4-0.4h2.6
		c0.2,0,0.4,0.2,0.4,0.4V20.9z M14,20.9c0,0.2-0.2,0.4-0.4,0.4h-2.6c-0.2,0-0.4-0.2-0.4-0.4v-6.8c0-0.2,0.2-0.4,0.4-0.4h2.6
		c0.2,0,0.4,0.2,0.4,0.4V20.9z M19.2,20.9c0,0.2-0.2,0.4-0.4,0.4h-2.6c-0.2,0-0.4-0.2-0.4-0.4V9.5c0-0.2,0.2-0.4,0.4-0.4h2.6
		c0.2,0,0.4,0.2,0.4,0.4V20.9z M24.5,20.9c0,0.2-0.2,0.4-0.4,0.4h-2.6c-0.2,0-0.4-0.2-0.4-0.4V3.5c0-0.2,0.2-0.4,0.4-0.4H24
		c0.2,0,0.4,0.2,0.4,0.4V20.9z"/>
</g>
</svg>
