<?xml version="1.0" encoding="UTF-8"?>
<!-- Generator: Adobe Illustrator 19.1.0, SVG Export Plug-In . SVG Version: 6.00 Build 0)  -->
<svg version="1.1" id="Layer_1" xmlns="http://www.w3.org/2000/svg" xmlns:xlink="http://www.w3.org/1999/xlink" x="0px" y="0px" viewBox="0 0 55 55" style="enable-background:new 0 0 55 55;" xml:space="preserve">
<style type="text/css">
	.st0{fill:#666666;}
</style>
<g>
	<path class="st0" d="M33.7,14.2l11.1-3.3c0.3-0.1,0.5-0.4,0.4-0.7c-0.1-0.3-0.4-0.4-0.7-0.3l-11.1,3.3c-0.3,0.1-0.5,0.4-0.4,0.7   C33,14.1,33.3,14.3,33.7,14.2"/>
	<path class="st0" d="M33.7,17.1l11.1-3.3c0.3-0.1,0.5-0.4,0.4-0.7c-0.1-0.3-0.4-0.4-0.7-0.3l-11.1,3.3c-0.3,0.1-0.5,0.4-0.4,0.7   C33,17,33.3,17.2,33.7,17.1"/>
	<path class="st0" d="M33.7,19.9l11.1-3.3c0.3-0.1,0.5-0.4,0.4-0.7c-0.1-0.3-0.4-0.4-0.7-0.3L33.3,19c-0.3,0.1-0.5,0.4-0.4,0.7   C33,19.9,33.3,20,33.7,19.9"/>
	<path class="st0" d="M33.7,22.8l11.1-3.3c0.3-0.1,0.5-0.4,0.4-0.7c-0.1-0.3-0.4-0.4-0.7-0.3l-11.1,3.3c-0.3,0.1-0.5,0.4-0.4,0.7   C33,22.8,33.3,22.9,33.7,22.8"/>
	<polygon class="st0" points="11.1,9.3 23.9,12.7 23.9,18.7 11.1,15.3  "/>
	<polygon class="st0" points="11.1,17.9 23.9,21.4 23.9,27.4 11.1,23.9  "/>
	<path class="st0" d="M52.8,9.9c-0.1-0.1-0.3-0.2-0.4-0.2h-2.9V3.5c0-0.2-0.1-0.3-0.2-0.4C49.1,3,48.9,3,48.7,3L29.2,9.4L7.3,3   C7.1,3,6.9,3,6.7,3.1C6.6,3.2,6.5,3.3,6.5,3.5v6.2H3.6c-0.2,0-0.3,0.1-0.4,0.2C3.1,10,3,10.1,3,10.2v33.9c0,0.1,0.1,0.3,0.2,0.4   c0.1,0.1,0.3,0.2,0.4,0.2h24.3L29,45c0,0,0,0,0.1,0c0,0,0.1,0,0.1,0c0,0,0.1,0,0.1,0c0,0,0,0,0.1,0l0.4-0.1l0.1,7.9l5.2-3.2   l4.8,3.3l-0.1-8.2h12.6c0.2,0,0.3-0.1,0.4-0.2c0.1-0.1,0.2-0.2,0.2-0.4V10.2C53,10.1,52.9,10,52.8,9.9z M4.2,43.7V10.8h2.3v27.3   c0,0.2,0.2,0.4,0.4,0.5l17.4,5.1H4.2z M28.6,43.7H28l-20.4-6V4.2l20.9,6.1V43.7z M29.7,10.4l18.6-6.1v33.5l-18.2,6h-0.4V10.4z    M38.7,50.8l-3.6-2.5L31,50.9l-0.1-6.2h7.7L38.7,50.8z M51.8,43.7H33.5l15.6-5.1c0.2-0.1,0.4-0.3,0.4-0.5V10.8h2.3V43.7z"/>
</g>
</svg>