<?xml version="1.0" encoding="UTF-8"?>
<!-- Generator: Adobe Illustrator 19.1.0, SVG Export Plug-In . SVG Version: 6.00 Build 0)  -->
<svg version="1.1" id="Layer_1" xmlns="http://www.w3.org/2000/svg" xmlns:xlink="http://www.w3.org/1999/xlink" x="0px" y="0px" viewBox="0 0 55 55" style="enable-background:new 0 0 55 55;" xml:space="preserve">
<style type="text/css">
	.st0{fill:#666666;}
</style>
<g>
	<path class="st0" d="M22.1,3.3L2,13.3V18v25.5l20,9.9l0,0l0,0l0,0v0l29.9-10V18.5v-5.2L22.1,3.3z M3,13.9l18.1-9L21,12.5L3,16.7   V13.9z M3,42.8V17.7l18.1-4.2l0,38.2L3,42.8z M51,42.6l-28,9.4l0-38.4l9.4,1.6l0,2.8c0,0,0.1,1.1,3.5,1.4c3.2,0.3,5.6,0.7,6-0.5   c0-0.8,0.1-1.6,0.1-2l8.9,1.5V42.6z M51,17.3l-27.9-4.8l0-7.8L51,14.1V17.3z"/>
	<g>
		<polygon class="st0" points="37.1,29.7 35,23.3 32.2,30.2 33.8,30 33.6,38.3 35.7,37.8 35.6,29.8   "/>
		<polygon class="st0" points="42.6,28.7 40.7,23.1 38.2,29.2 39.8,29 39.6,36.9 41.3,36.4 41.2,28.9   "/>
		<polygon class="st0" points="32,39.3 32,40.3 41.9,37.9 41.9,37   "/>
	</g>
</g>
</svg>