<?xml version="1.0" encoding="UTF-8"?>
<!-- Generator: Adobe Illustrator 19.1.0, SVG Export Plug-In . SVG Version: 6.00 Build 0)  -->
<svg version="1.1" id="Layer_1" xmlns="http://www.w3.org/2000/svg" xmlns:xlink="http://www.w3.org/1999/xlink" x="0px" y="0px" viewBox="0 0 55 55" style="enable-background:new 0 0 55 55;" xml:space="preserve">
<style type="text/css">
	.st0{fill:#666666;}
</style>
<g>
	<path class="st0" d="M36.8,3l-4.9,3.1c-0.9-0.7-2-1.2-3.2-1.2c-2.7,0-4.9,2.2-4.9,4.9c0,0.4,0,0.9,0.1,1.3L21,13L3,3v40l18,10   l16-10l16,10V13.1L36.8,3z M19.9,51.3L4,42.4V4.7l16,8.9L19.9,51.3z M36.5,42.2L21,51.8l-0.1,0L21,14c0,0,0,0,0,0   c0.2,0,0.4-0.1,0.5-0.2l2.6-1.7c1.1,4.1,4.6,7.6,4.6,7.6s4.9-4.9,4.9-9.9c0-1.2-0.4-2.2-1.1-3l3.8-2.4l0,17.8   c-1,0.9-1.6,2.2-1.6,3.7c0,1.9,0.7,3.8,1.7,5.5L36.5,42.2C36.5,42.1,36.5,42.1,36.5,42.2z M52,51.2l-14.5-9c0,0,0,0,0,0l0-9.2   c1.2,1.7,2.3,2.8,2.3,2.8s4.9-4.9,4.9-9.9c0-2.7-2.2-4.9-4.9-4.9c-0.8,0-1.6,0.2-2.3,0.6l0-17L52,13.6V51.2z"/>
	<path class="st0" d="M17.7,28.9c0-2.7-2.2-4.9-4.9-4.9c-2.7,0-4.9,2.2-4.9,4.9c0,4.9,4.9,9.9,4.9,9.9S17.7,33.8,17.7,28.9z"/>
</g>
</svg>