<?xml version="1.0" encoding="utf-8"?>
<!-- Generator: Adobe Illustrator 19.1.0, SVG Export Plug-In . SVG Version: 6.00 Build 0)  -->
<svg version="1.1" id="Layer_1" xmlns="http://www.w3.org/2000/svg" xmlns:xlink="http://www.w3.org/1999/xlink" x="0px" y="0px"
	 viewBox="0 0 45 55" style="enable-background:new 0 0 45 55;" xml:space="preserve">
<style type="text/css">
	.st0{fill:#666666;}
</style>
<g>
	<path class="st0" d="M36.8,3H10.9C7.1,3,3,6.2,3,10.1v35.9c0,3.9,4.1,7.1,7.9,7.1h26.1c3.8,0,5.9-3.2,5.9-7.1V10.1
		C43,6.2,40.6,3,36.8,3z M42,45.9c0,3.3-1.7,6.1-4.9,6.1H10.9C7.7,52,4,49.3,4,45.9V10.1C4,6.7,7.7,4,10.9,4h3.5c0,0-0.7,4,2.6,4
		c0.9,0,2.1,0,3.5,0c0,0.2-0.1,0.3-0.1,0.5c0,1.4,1.1,2.5,2.5,2.5c1.4,0,2.5-1.1,2.5-2.5c0-0.2,0-0.3-0.1-0.5c1.6,0,2.8,0,2.8,0
		s3.2,1,3.2-4H37c3.3,0,5,2.7,5,6.1V45.9z M24.5,8.5c0,0.8-0.7,1.5-1.5,1.5s-1.5-0.7-1.5-1.5S22.2,7,23,7S24.5,7.7,24.5,8.5z"/>
	<path class="st0" d="M36.5,29.5c0,0.8-0.7,1.5-1.5,1.5H13c-0.8,0-1.5-0.7-1.5-1.5S12.2,28,13,28h22C35.8,28,36.5,28.7,36.5,29.5z"
		/>
	<path class="st0" d="M36.5,34.5c0,0.8-0.7,1.5-1.5,1.5H13c-0.8,0-1.5-0.7-1.5-1.5S12.2,33,13,33h22C35.8,33,36.5,33.7,36.5,34.5z"
		/>
	<path class="st0" d="M36.5,39.5c0,0.8-0.7,1.5-1.5,1.5H13c-0.8,0-1.5-0.7-1.5-1.5S12.2,38,13,38h22C35.8,38,36.5,38.7,36.5,39.5z"
		/>
	<path class="st0" d="M29.5,44.5c0,0.8-0.5,1.5-1.1,1.5H12.6c-0.6,0-1.1-0.7-1.1-1.5S12,43,12.6,43h15.8C29,43,29.5,43.7,29.5,44.5z
		"/>
	<rect x="11.5" y="15" class="st0" width="25" height="11"/>
</g>
</svg>
