<?xml version="1.0" encoding="utf-8"?>
<!-- Generator: Adobe Illustrator 19.1.0, SVG Export Plug-In . SVG Version: 6.00 Build 0)  -->
<svg version="1.1" id="Layer_1" xmlns="http://www.w3.org/2000/svg" xmlns:xlink="http://www.w3.org/1999/xlink" x="0px" y="0px"
	 viewBox="0 0 46 50" style="enable-background:new 0 0 46 50;" xml:space="preserve">
<style type="text/css">
	.st0{fill:#FFFFFF;}
	.st1{fill:#666666;}
</style>
<g>
	<path class="st0" d="M1.8,28.1L2,28.4l13.2-8.9L18,22l-13,8.8l0.2,0.3v-0.3l0,0c-0.2,0-0.9-0.1-1.6-0.4c-0.4-0.2-0.7-0.4-0.9-0.8
		c-0.2-0.4-0.4-0.8-0.4-1.5H1.8L2,28.4L1.8,28.1H1.4c0,0.8,0.2,1.5,0.6,2c0.5,0.7,1.3,1.1,2,1.3c0.6,0.2,1.1,0.2,1.2,0.2h0.1
		l13.9-9.4l-3.9-3.5L1.4,27.9v0.2H1.8z"/>
	<g>
		<path class="st1" d="M19.7,23.4c-0.1,0-0.2-0.1-0.3-0.1c-1.3-0.6-2.8-1.5-3.9-3c-0.5-0.8-0.9-1.7-1.1-2.9
			c-2.4,1.7-5.3,3.8-6.8,5.2c-0.1,0.4-0.1,0.9-0.1,1.2l-4.5,3.3c-0.5-0.3-1-0.3-1.2,0c-0.4,0.4-0.3,1.4,0.2,2.4c0,0,0,0,0,0
			c0.1,0.2,0.3,0.5,0.5,0.7c0.9,1.2,2.1,1.7,2.6,1.2c0.1-0.1,0.2-0.3,0.2-0.5l4.9-3.6c0.7,0.3,1.3,0.4,1.3,0.4
			C13.6,26.9,17,25,19.7,23.4z"/>
		<path class="st1" d="M40.6,3.8c-1.9-1.9-4.2-3-5.9-3c-0.6,0-1.2,0.2-1.6,0.5c-0.3,0.3-0.5,0.7-0.6,1.1c0,0,0-0.1,0-0.1
			c-0.2,0.2-0.5,0.3-0.8,0.5c-1.3,0.9-3.2,2.2-5.2,3.6c-3.9,2.8-8.4,6.1-10.9,8.4c-0.1,0.6-0.2,1.2-0.2,1.7c0,1.3,0.4,2.3,0.9,3.2
			c0.5,0.8,1.3,1.5,2,2c1.4,1,3,1.4,3.4,1.5c0.4-0.2,1.2-0.4,1.2-0.6v6.7l-15,18c-1.3,0-2.3,0.4-2.3,0.8c0,0.4,1.1,0.8,2.5,0.8
			c1.4,0,2.5-0.3,2.5-0.8c0-0.3-0.7-0.6-1.6-0.7L23.2,31h2.5l6.3,16.3c-1,0.1-1.8,0.4-1.8,0.7c0,0.4,1.1,0.7,2.5,0.7
			c1.4,0,2.5-0.3,2.5-0.8c0-0.4-1-0.7-2.2-0.8l-6.4-16.6L42,44.7c-0.9,0.1-1.6,0.4-1.6,0.7c0,0.4,1.1,0.8,2.5,0.8
			c1.4,0,2.5-0.3,2.5-0.8c0-0.4-0.9-0.7-2.1-0.7L26,28.3L25.8,21c5.1-2.7,11.6-6.5,15.1-8.5c0.4-0.3,0.8-0.5,1.1-0.7
			c-0.1,0-0.2,0-0.3,0c0.5,0,1-0.1,1.3-0.4C44.6,10.2,43.2,6.4,40.6,3.8z M42.4,10.7c-0.2,0.1-0.4,0.2-0.6,0.2c-1.5,0-4-1.4-5.9-3.3
			c-1.6-1.6-2.5-3.4-2.4-4.7c0-0.4,0.1-0.7,0.4-0.9c0.2-0.2,0.5-0.3,1-0.3c1.2,0,3.3,0.8,5.2,2.7c1.9,1.9,2.8,4.2,2.8,5.5
			C42.6,10.2,42.6,10.5,42.4,10.7z"/>
	</g>
</g>
</svg>
